<?xml version="1.0" standalone="no"?>
<!DOCTYPE svg PUBLIC "-//W3C//DTD SVG 20010904//EN"
 "http://www.w3.org/TR/2001/REC-SVG-20010904/DTD/svg10.dtd">
<svg version="1.0" xmlns="http://www.w3.org/2000/svg"
 width="264.000000pt" height="264.000000pt" viewBox="0 0 264.000000 264.000000"
 preserveAspectRatio="xMidYMid meet">
<metadata>
Created by potrace 1.14, written by Peter Selinger 2001-2017
</metadata>
<g transform="translate(0.000000,264.000000) scale(0.100000,-0.100000)"
fill="#000000" stroke="none">
<path d="M1900 2425 c-91 -187 -108 -215 -125 -211 -37 8 -170 46 -185 52 -8
4 -24 8 -35 10 -11 1 -47 9 -81 17 -59 14 -168 15 -249 2 -22 -3 -53 -8 -70
-11 -16 -2 -58 -6 -93 -9 -34 -3 -72 -10 -83 -16 -11 -6 -28 -12 -37 -14 -9
-2 -46 -13 -82 -25 -36 -12 -72 -23 -81 -25 -8 -2 -59 -24 -114 -50 -82 -39
-111 -60 -177 -126 -93 -92 -125 -154 -143 -273 -13 -93 -12 -161 5 -226 6
-25 13 -52 14 -60 10 -57 30 -141 41 -175 7 -22 15 -58 18 -80 10 -67 55 -278
65 -306 6 -15 9 -29 6 -32 -2 -2 0 -17 6 -33 6 -16 13 -44 16 -64 8 -60 11
-74 23 -117 6 -23 11 -45 10 -50 -1 -4 0 -10 1 -13 2 -7 8 -31 15 -64 3 -16 8
-33 11 -38 3 -4 7 -16 9 -26 1 -10 12 -33 24 -52 11 -19 28 -48 37 -65 9 -16
25 -39 35 -50 10 -11 31 -35 48 -52 16 -18 33 -33 38 -33 6 0 18 -9 28 -20 10
-11 24 -20 31 -20 7 0 14 -3 16 -7 5 -13 66 -53 81 -53 7 0 17 -4 22 -9 18
-17 170 -61 235 -68 63 -7 181 -7 247 0 32 4 173 47 183 57 3 3 27 16 55 30
75 38 104 59 172 127 69 70 119 162 152 283 12 41 27 95 35 120 7 25 12 62 10
83 -1 20 2 37 7 37 5 0 8 3 7 8 0 4 2 16 6 27 4 11 13 34 19 50 7 17 12 32 13
35 0 3 4 12 7 20 22 54 42 118 62 200 9 36 25 79 35 96 15 26 32 79 34 106 1
3 4 10 9 14 4 4 7 14 7 23 0 13 19 81 58 201 16 51 -5 202 -37 255 -3 6 -6 16
-7 22 -1 7 -12 24 -23 39 -12 15 -21 31 -21 35 0 5 -22 32 -50 61 -27 29 -50
56 -50 61 0 4 -7 7 -15 7 -8 0 -15 3 -15 8 0 4 -24 23 -52 42 -129 86 -124 72
-70 181 25 52 50 96 54 97 4 2 8 12 8 22 0 10 4 21 9 24 8 6 121 220 121 231
0 3 -33 5 -73 5 l-72 0 -105 -215z"/>
</g>
</svg>
